<?xml version="1.0" encoding="UTF-8" standalone="no"?>
<!-- Created with Inkscape (http://www.inkscape.org/) -->

<svg
   xmlns:dc="http://purl.org/dc/elements/1.1/"
   xmlns:cc="http://creativecommons.org/ns#"
   xmlns:rdf="http://www.w3.org/1999/02/22-rdf-syntax-ns#"
   xmlns:svg="http://www.w3.org/2000/svg"
   xmlns="http://www.w3.org/2000/svg"
   xmlns:sodipodi="http://sodipodi.sourceforge.net/DTD/sodipodi-0.dtd"
   xmlns:inkscape="http://www.inkscape.org/namespaces/inkscape"
   width="46.889469mm"
   height="46.889469mm"
   viewBox="0 0 46.88947 46.889469"
   version="1.1"
   id="svg8"
   inkscape:version="0.92.3 (2405546, 2018-03-11)"
   sodipodi:docname="iconGroup.svg"
   inkscape:export-filename="C:\Users\IsabelaMaués\Desktop\iconeGrupo.png"
   inkscape:export-xdpi="96"
   inkscape:export-ydpi="96">
  <defs
     id="defs2" />
  <sodipodi:namedview
     id="base"
     pagecolor="#ffffff"
     bordercolor="#666666"
     borderopacity="1.0"
     inkscape:pageopacity="0.0"
     inkscape:pageshadow="2"
     inkscape:zoom="2.191296"
     inkscape:cx="74.119529"
     inkscape:cy="88.410231"
     inkscape:document-units="px"
     inkscape:current-layer="g4749"
     showgrid="false"
     inkscape:window-width="1312"
     inkscape:window-height="704"
     inkscape:window-x="54"
     inkscape:window-y="27"
     inkscape:window-maximized="1"
     inkscape:snap-global="false"
     fit-margin-top="0"
     fit-margin-left="0"
     fit-margin-right="0"
     fit-margin-bottom="0"
     inkscape:snap-object-midpoints="true"
     inkscape:snap-page="true"
     showguides="false" />
  <metadata
     id="metadata5">
    <rdf:RDF>
      <cc:Work
         rdf:about="">
        <dc:format>image/svg+xml</dc:format>
        <dc:type
           rdf:resource="http://purl.org/dc/dcmitype/StillImage" />
        <dc:title></dc:title>
      </cc:Work>
    </rdf:RDF>
  </metadata>
  <g
     inkscape:label="Camada 1"
     inkscape:groupmode="layer"
     id="layer1"
     transform="translate(-74.467989,-112.51278)">
    <g
       id="g4513"
       transform="matrix(0.26458333,0,0,0.26458333,79.152146,123.54672)">
      <g
         id="g4585"
         style="fill:#ffffff;fill-opacity:1;stroke:#fcfcfc;stroke-opacity:1"
         transform="translate(-0.94923896,4.0406066)" />
      <g
         id="g4749"
         transform="translate(-47.477169,-60.104081)">
        <g
           id="g827"
           style="fill:#ffffff">
          <circle
             transform="translate(-0.94923718,4.040607)"
             style="fill:#ffffff;fill-opacity:1;stroke:#fcfcfc;stroke-width:1.09672594;stroke-linecap:square;stroke-miterlimit:4;stroke-dasharray:none;stroke-opacity:1;paint-order:markers stroke fill"
             id="circle4581"
             cx="119.64322"
             cy="85.989006"
             r="20.354967" />
          <path
             transform="translate(-0.94923718,4.040607)"
             inkscape:connector-curvature="0"
             style="fill:#ffffff;fill-opacity:1;stroke:#fcfcfc;stroke-width:1.02903473;stroke-linecap:square;stroke-miterlimit:4;stroke-dasharray:none;stroke-opacity:1;paint-order:markers stroke fill"
             clip-path="none"
             d="m 107.62161,108.10998 c -12.555026,0 -22.662119,10.10709 -22.662119,22.6621 v 24.14454 a 57.538792,32.148956 0 0 0 34.896499,6.63671 57.538792,32.148956 0 0 0 33.08398,-5.89257 v -24.88868 c 0,-12.55501 -10.10709,-22.6621 -22.66211,-22.6621 z"
             id="path4583" />
          <path
             inkscape:connector-curvature="0"
             style="fill:#ffffff;fill-opacity:1;stroke:#fcfcfc;stroke-width:1.09672594;stroke-linecap:square;stroke-miterlimit:4;stroke-dasharray:none;stroke-opacity:1;paint-order:markers stroke fill"
             d="m 382.98047,515.41016 a 20.354967,20.354967 0 0 0 -20.35352,20.35351 20.354967,20.354967 0 0 0 20.35352,20.35547 20.354967,20.354967 0 0 0 10.85351,-3.14453 24.617672,24.617672 0 0 1 9.41797,-15.51953 20.354967,20.354967 0 0 0 0.084,-1.69141 20.354967,20.354967 0 0 0 -20.35547,-20.35351 z"
             transform="translate(-299.15772,-466.94824)"
             id="circle4683" />
          <path
             inkscape:connector-curvature="0"
             style="fill:#ffffff;fill-opacity:1;stroke:#fcfcfc;stroke-width:1.02903473;stroke-linecap:square;stroke-miterlimit:4;stroke-dasharray:none;stroke-opacity:1;paint-order:markers stroke fill"
             clip-path="none"
             d="m 371.46484,558.89648 c -12.55502,0 -22.66211,10.1071 -22.66211,22.66211 v 24.14453 a 57.53879,32.148956 0 0 0 30.28711,6.4961 v -12.95899 c 0,-12.66761 9.14812,-23.11194 21.22461,-25.13085 a 24.617672,24.617672 0 0 1 -6.77929,-15.2129 z"
             transform="translate(-299.15772,-466.94824)"
             id="path4685" />
          <path
             inkscape:connector-curvature="0"
             style="fill:#ffffff;fill-opacity:1;stroke:#fcfcfc;stroke-width:1.09672594;stroke-linecap:square;stroke-miterlimit:4;stroke-dasharray:none;stroke-opacity:1;paint-order:markers stroke fill"
             d="m 452.47656,516.1543 a 20.354967,20.354967 0 0 0 -20.35547,20.35351 20.354967,20.354967 0 0 0 0.0137,0.36914 24.617672,24.617672 0 0 1 10.36914,17.36133 20.354967,20.354967 0 0 0 9.97265,2.625 20.354967,20.354967 0 0 0 20.35547,-20.35547 20.354967,20.354967 0 0 0 -20.35547,-20.35351 z"
             transform="translate(-299.15772,-466.94824)"
             id="circle4697" />
          <path
             inkscape:connector-curvature="0"
             style="fill:#ffffff;fill-opacity:1;stroke:#fcfcfc;stroke-width:1.02903473;stroke-linecap:square;stroke-miterlimit:4;stroke-dasharray:none;stroke-opacity:1;paint-order:markers stroke fill"
             clip-path="none"
             d="m 442.56055,559.64062 a 24.617672,24.617672 0 0 1 -6.96875,14.71094 c 11.44694,2.51167 19.96484,12.66555 19.96484,24.88867 v 13.77539 a 57.53879,32.148956 0 0 0 30.72266,-5.82421 v -24.88868 c 0,-12.55501 -10.10709,-22.66211 -22.66211,-22.66211 z"
             transform="translate(-299.15772,-466.94824)"
             id="path4699" />
        </g>
      </g>
    </g>
  </g>
</svg>
